<svg version="1.0" xmlns="http://www.w3.org/2000/svg"
 width="65px" height="65px" viewBox="0 0 900.000000 900.000000"
 preserveAspectRatio="xMidYMid meet">

<g transform="translate(0.000000,900.000000) scale(0.100000,-0.100000)"
fill="#6205D5" stroke="none">
<path d="M5789 6324 l-74 -86 -1205 7 -1205 6 -65 69 -65 68 -722 5 c-685 5
-723 4 -723 -12 0 -15 326 -447 557 -738 l73 -93 64 0 c46 0 69 -5 84 -17 11
-10 161 -205 334 -433 173 -228 343 -453 379 -499 l64 -83 3 626 2 626 422 0
421 0 -6 -772 c-4 -425 -7 -891 -7 -1035 l0 -262 -209 -3 c-115 -2 -212 -6
-216 -10 -6 -6 109 -166 542 -751 117 -158 221 -299 230 -312 10 -14 26 -24
37 -22 12 1 162 194 423 544 221 299 403 545 403 548 0 3 -97 5 -215 5 l-215
0 0 1035 0 1035 408 0 409 0 6 -212 c4 -116 7 -392 7 -612 l1 -401 30 35 c16
19 193 247 392 507 l362 472 55 2 c30 0 65 4 78 7 15 5 130 147 327 407 168
220 305 405 305 411 0 15 -371 24 -956 24 l-461 0 -74 -86z"/>
</g>
</svg>
