<svg xmlns="http://www.w3.org/2000/svg"  viewBox="0 0 64 64" width="128px" height="128px"><linearGradient id="DGDfIQlgHoHp2L6K571Yza" x1="35.032" x2="35.032" y1="26.66" y2="38.264" gradientUnits="userSpaceOnUse"><stop offset="0" stop-color="#6dc7ff"/><stop offset="1" stop-color="#e6abff"/></linearGradient><polygon fill="url(#DGDfIQlgHoHp2L6K571Yza)" points="32,40.208 27.52,35.728 39.376,25.184 42.544,28.352"/><linearGradient id="DGDfIQlgHoHp2L6K571Yzb" x1="35.032" x2="35.032" y1="7.085" y2="55.332" gradientUnits="userSpaceOnUse"><stop offset="0" stop-color="#1a6dff"/><stop offset="1" stop-color="#c822ff"/></linearGradient><path fill="url(#DGDfIQlgHoHp2L6K571Yzb)" d="M40.083,24.478c-0.375-0.374-0.976-0.392-1.372-0.04L26.855,34.981 c-0.206,0.183-0.327,0.442-0.335,0.718c-0.008,0.275,0.098,0.542,0.292,0.736l4.48,4.479c0.188,0.188,0.442,0.293,0.707,0.293 c0.01,0,0.02,0,0.029,0c0.275-0.009,0.535-0.13,0.718-0.336l10.543-11.856c0.352-0.396,0.334-0.997-0.04-1.371L40.083,24.478z M31.958,38.751l-2.98-2.979l10.359-9.213l1.833,1.833L31.958,38.751z"/><linearGradient id="DGDfIQlgHoHp2L6K571Yzc" x1="32" x2="32" y1="7.085" y2="55.332" gradientUnits="userSpaceOnUse"><stop offset="0" stop-color="#1a6dff"/><stop offset="1" stop-color="#c822ff"/></linearGradient><path fill="url(#DGDfIQlgHoHp2L6K571Yzc)" d="M32,7C16.009,7,3,20.132,3,36.272c0,7.674,2.92,14.927,8.223,20.422 c0.187,0.193,0.444,0.304,0.713,0.306c0.002,0,0.004,0,0.006,0c0.267,0,0.523-0.106,0.711-0.297l3.535-3.571 c0.382-0.385,0.387-1.004,0.011-1.396C12.202,47.569,10,42.077,10,36.272c0-12.254,9.869-22.224,22-22.224s22,9.97,22,22.224 c0,5.805-2.202,11.297-6.199,15.464c-0.375,0.392-0.371,1.011,0.011,1.396l3.535,3.571C51.535,56.894,51.791,57,52.058,57 c0.002,0,0.004,0,0.006,0c0.269-0.002,0.526-0.112,0.713-0.306C58.08,51.199,61,43.946,61,36.272C61,20.132,47.991,7,32,7z M52.035,54.556l-2.13-2.151C53.843,47.959,56,42.269,56,36.272c0-13.357-10.767-24.224-24-24.224S8,22.915,8,36.272 c0,5.996,2.157,11.687,6.095,16.132l-2.13,2.151C7.466,49.534,5,43.082,5,36.272C5,21.234,17.112,9,32,9s27,12.234,27,27.272 C59,43.082,56.534,49.534,52.035,54.556z"/></svg>