<svg xmlns="http://www.w3.org/2000/svg"  viewBox="0 0 64 64" width="128px" height="128px"><linearGradient id="qbKmAI7f9PatMzEHuo_gta" x1="32" x2="32" y1="15" y2="34" gradientUnits="userSpaceOnUse" spreadMethod="reflect"><stop offset="0" stop-color="#8ab4ff"/><stop offset="1" stop-color="#e492ff"/></linearGradient><path fill="url(#qbKmAI7f9PatMzEHuo_gta)" d="M54,17.24C53.09,22.45,50.7,34,50.7,34H13.3c0,0-2.39-11.55-3.3-16.76 c0-1.29,0.87-2.24,2.2-2.24h39.6C52.45,15,54,15.56,54,17.24z"/><linearGradient id="qbKmAI7f9PatMzEHuo_gtb" x1="32" x2="32" y1="8" y2="53.814" gradientUnits="userSpaceOnUse" spreadMethod="reflect"><stop offset="0" stop-color="#1A6DFF"/><stop offset="1" stop-color="#C822FF"/></linearGradient><path fill="url(#qbKmAI7f9PatMzEHuo_gtb)" d="M51.721,34c0.325-1.57,2.432-11.805,3.264-16.594L55,17.235C55,15.028,53.09,14,51.8,14H50v-2 c0-2.206-1.794-4-4-4H18.001c-1.069,0-2.073,0.416-2.829,1.172c-0.755,0.756-1.171,1.761-1.171,2.829L14,14h-1.8 C10.346,14,9,15.36,9,17.235l0.015,0.171C9.847,22.195,11.954,32.43,12.279,34c-0.325,1.57-2.432,11.805-3.264,16.594L9,50.765 C9,52.64,10.346,54,12.2,54h39.6c1.291,0,3.2-1.028,3.2-3.235l-0.015-0.171C54.153,45.805,52.046,35.57,51.721,34z M16.001,12.001 c0-0.534,0.208-1.037,0.585-1.415C16.964,10.208,17.467,10,18.001,10H46c1.103,0,2,0.897,2,2v2H16L16.001,12.001z M51.8,52H12.2 c-0.715,0-1.168-0.441-1.199-1.158c0.905-5.182,3.254-16.524,3.277-16.639L14.321,34l-0.042-0.203 c-0.023-0.114-2.373-11.457-3.277-16.639C11.032,16.441,11.485,16,12.2,16H14h36h1.8c0.012,0,1.146,0.106,1.198,1.159 c-0.905,5.183-3.253,16.523-3.277,16.638L49.679,34l0.042,0.203c0.023,0.114,2.372,11.455,3.277,16.638 C52.946,51.894,51.812,52,51.8,52z"/><linearGradient id="qbKmAI7f9PatMzEHuo_gtc" x1="26.5" x2="26.5" y1="8" y2="53.814" gradientUnits="userSpaceOnUse" spreadMethod="reflect"><stop offset="0" stop-color="#1A6DFF"/><stop offset="1" stop-color="#C822FF"/></linearGradient><path fill="url(#qbKmAI7f9PatMzEHuo_gtc)" d="M32,37.863c0,1.602-0.522,2.851-1.565,3.767C29.401,42.537,28.066,43,26.451,43 c-1.596,0-2.91-0.433-3.944-1.289c-1.044-0.866-1.545-2.035-1.505-3.505l0.04-0.071h2.248c0,0.917,0.281,1.652,0.843,2.196 c0.562,0.544,1.335,0.816,2.318,0.816c0.993,0,1.776-0.272,2.338-0.816c0.572-0.544,0.853-1.35,0.853-2.417 c0-1.078-0.251-1.874-0.753-2.387c-0.502-0.514-1.294-0.766-2.378-0.766h-2.057v-0.937h-0.01v-0.917h2.067 c1.044,0,1.776-0.262,2.218-0.786c0.431-0.524,0.652-1.259,0.652-2.196c0-0.997-0.251-1.763-0.743-2.276 c-0.502-0.524-1.224-0.786-2.188-0.786c-0.923,0-1.656,0.272-2.208,0.816c-0.542,0.514-0.813,1.209-0.833,2.156h-2.268l-0.02-0.081 c-0.04-1.32,0.431-2.438,1.425-3.364c0.993-0.927,2.298-1.39,3.903-1.39c1.605,0,2.89,0.433,3.853,1.289 c0.953,0.866,1.435,2.095,1.435,3.687c0,0.715-0.221,1.44-0.652,2.156c-0.442,0.715-1.094,1.259-1.957,1.642l0.1,0.05 c0.993,0.332,1.696,0.856,2.117,1.571C31.779,36.13,32,36.956,32,37.863z"/><linearGradient id="qbKmAI7f9PatMzEHuo_gtd" x1="39.035" x2="39.035" y1="8" y2="53.814" gradientUnits="userSpaceOnUse" spreadMethod="reflect"><stop offset="0" stop-color="#1A6DFF"/><stop offset="1" stop-color="#C822FF"/></linearGradient><path fill="url(#qbKmAI7f9PatMzEHuo_gtd)" d="M41.99 25.252L41.99 42.748 39.64 42.748 39.64 27.558 36.08 27.609 36.08 25.907z"/><linearGradient id="qbKmAI7f9PatMzEHuo_gte" x1="21" x2="21" y1="8" y2="53.814" gradientUnits="userSpaceOnUse" spreadMethod="reflect"><stop offset="0" stop-color="#1A6DFF"/><stop offset="1" stop-color="#C822FF"/></linearGradient><path fill="url(#qbKmAI7f9PatMzEHuo_gte)" d="M21 11A1 1 0 1 0 21 13A1 1 0 1 0 21 11Z"/><linearGradient id="qbKmAI7f9PatMzEHuo_gtf" x1="43" x2="43" y1="8" y2="53.814" gradientUnits="userSpaceOnUse" spreadMethod="reflect"><stop offset="0" stop-color="#1A6DFF"/><stop offset="1" stop-color="#C822FF"/></linearGradient><path fill="url(#qbKmAI7f9PatMzEHuo_gtf)" d="M43 11A1 1 0 1 0 43 13A1 1 0 1 0 43 11Z"/></svg>